solid CYLINDER/30/130@ffff8040
   facet normal 0.000000E+000 0.000000E+000 1.000000E+000
      outer loop
         vertex 3.000000E+001 0.000000E+000 1.300000E+002
         vertex 2.897778E+001 7.764571E+000 1.300000E+002
         vertex 0.000000E+000 0.000000E+000 1.300000E+002
      endloop
   endfacet
   facet normal 0.000000E+000 0.000000E+000 1.000000E+000
      outer loop
         vertex 2.897778E+001 7.764571E+000 1.300000E+002
         vertex 2.598076E+001 1.500000E+001 1.300000E+002
         vertex 0.000000E+000 0.000000E+000 1.300000E+002
      endloop
   endfacet
   facet normal 0.000000E+000 0.000000E+000 1.000000E+000
      outer loop
         vertex 2.598076E+001 1.500000E+001 1.300000E+002
         vertex 2.121320E+001 2.121320E+001 1.300000E+002
         vertex 0.000000E+000 0.000000E+000 1.300000E+002
      endloop
   endfacet
   facet normal 0.000000E+000 0.000000E+000 1.000000E+000
      outer loop
         vertex 2.121320E+001 2.121320E+001 1.300000E+002
         vertex 1.500000E+001 2.598076E+001 1.300000E+002
         vertex 0.000000E+000 0.000000E+000 1.300000E+002
      endloop
   endfacet
   facet normal 0.000000E+000 0.000000E+000 1.000000E+000
      outer loop
         vertex 1.500000E+001 2.598076E+001 1.300000E+002
         vertex 7.764571E+000 2.897778E+001 1.300000E+002
         vertex 0.000000E+000 0.000000E+000 1.300000E+002
      endloop
   endfacet
   facet normal 0.000000E+000 0.000000E+000 1.000000E+000
      outer loop
         vertex 7.764571E+000 2.897778E+001 1.300000E+002
         vertex 1.836910E-015 3.000000E+001 1.300000E+002
         vertex 0.000000E+000 0.000000E+000 1.300000E+002
      endloop
   endfacet
   facet normal 0.000000E+000 0.000000E+000 1.000000E+000
      outer loop
         vertex 1.836910E-015 3.000000E+001 1.300000E+002
         vertex -7.764571E+000 2.897778E+001 1.300000E+002
         vertex 0.000000E+000 0.000000E+000 1.300000E+002
      endloop
   endfacet
   facet normal 0.000000E+000 0.000000E+000 1.000000E+000
      outer loop
         vertex -7.764571E+000 2.897778E+001 1.300000E+002
         vertex -1.500000E+001 2.598076E+001 1.300000E+002
         vertex 0.000000E+000 0.000000E+000 1.300000E+002
      endloop
   endfacet
   facet normal 0.000000E+000 0.000000E+000 1.000000E+000
      outer loop
         vertex -1.500000E+001 2.598076E+001 1.300000E+002
         vertex -2.121320E+001 2.121320E+001 1.300000E+002
         vertex 0.000000E+000 0.000000E+000 1.300000E+002
      endloop
   endfacet
   facet normal 0.000000E+000 0.000000E+000 1.000000E+000
      outer loop
         vertex -2.121320E+001 2.121320E+001 1.300000E+002
         vertex -2.598076E+001 1.500000E+001 1.300000E+002
         vertex 0.000000E+000 0.000000E+000 1.300000E+002
      endloop
   endfacet
   facet normal 0.000000E+000 0.000000E+000 1.000000E+000
      outer loop
         vertex -2.598076E+001 1.500000E+001 1.300000E+002
         vertex -2.897778E+001 7.764571E+000 1.300000E+002
         vertex 0.000000E+000 0.000000E+000 1.300000E+002
      endloop
   endfacet
   facet normal 0.000000E+000 0.000000E+000 1.000000E+000
      outer loop
         vertex -2.897778E+001 7.764571E+000 1.300000E+002
         vertex -3.000000E+001 3.673819E-015 1.300000E+002
         vertex 0.000000E+000 0.000000E+000 1.300000E+002
      endloop
   endfacet
   facet normal 0.000000E+000 0.000000E+000 1.000000E+000
      outer loop
         vertex -3.000000E+001 3.673819E-015 1.300000E+002
         vertex -2.897778E+001 -7.764571E+000 1.300000E+002
         vertex 0.000000E+000 0.000000E+000 1.300000E+002
      endloop
   endfacet
   facet normal 0.000000E+000 0.000000E+000 1.000000E+000
      outer loop
         vertex -2.897778E+001 -7.764571E+000 1.300000E+002
         vertex -2.598076E+001 -1.500000E+001 1.300000E+002
         vertex 0.000000E+000 0.000000E+000 1.300000E+002
      endloop
   endfacet
   facet normal 0.000000E+000 0.000000E+000 1.000000E+000
      outer loop
         vertex -2.598076E+001 -1.500000E+001 1.300000E+002
         vertex -2.121320E+001 -2.121320E+001 1.300000E+002
         vertex 0.000000E+000 0.000000E+000 1.300000E+002
      endloop
   endfacet
   facet normal 0.000000E+000 0.000000E+000 1.000000E+000
      outer loop
         vertex -2.121320E+001 -2.121320E+001 1.300000E+002
         vertex -1.500000E+001 -2.598076E+001 1.300000E+002
         vertex 0.000000E+000 0.000000E+000 1.300000E+002
      endloop
   endfacet
   facet normal 0.000000E+000 0.000000E+000 1.000000E+000
      outer loop
         vertex -1.500000E+001 -2.598076E+001 1.300000E+002
         vertex -7.764571E+000 -2.897778E+001 1.300000E+002
         vertex 0.000000E+000 0.000000E+000 1.300000E+002
      endloop
   endfacet
   facet normal 0.000000E+000 0.000000E+000 1.000000E+000
      outer loop
         vertex -7.764571E+000 -2.897778E+001 1.300000E+002
         vertex -5.510729E-015 -3.000000E+001 1.300000E+002
         vertex 0.000000E+000 0.000000E+000 1.300000E+002
      endloop
   endfacet
   facet normal 0.000000E+000 0.000000E+000 1.000000E+000
      outer loop
         vertex -5.510729E-015 -3.000000E+001 1.300000E+002
         vertex 7.764571E+000 -2.897778E+001 1.300000E+002
         vertex 0.000000E+000 0.000000E+000 1.300000E+002
      endloop
   endfacet
   facet normal 0.000000E+000 0.000000E+000 1.000000E+000
      outer loop
         vertex 7.764571E+000 -2.897778E+001 1.300000E+002
         vertex 1.500000E+001 -2.598076E+001 1.300000E+002
         vertex 0.000000E+000 0.000000E+000 1.300000E+002
      endloop
   endfacet
   facet normal 0.000000E+000 0.000000E+000 1.000000E+000
      outer loop
         vertex 1.500000E+001 -2.598076E+001 1.300000E+002
         vertex 2.121320E+001 -2.121320E+001 1.300000E+002
         vertex 0.000000E+000 0.000000E+000 1.300000E+002
      endloop
   endfacet
   facet normal 0.000000E+000 0.000000E+000 1.000000E+000
      outer loop
         vertex 2.121320E+001 -2.121320E+001 1.300000E+002
         vertex 2.598076E+001 -1.500000E+001 1.300000E+002
         vertex 0.000000E+000 0.000000E+000 1.300000E+002
      endloop
   endfacet
   facet normal 0.000000E+000 0.000000E+000 1.000000E+000
      outer loop
         vertex 2.598076E+001 -1.500000E+001 1.300000E+002
         vertex 2.897778E+001 -7.764571E+000 1.300000E+002
         vertex 0.000000E+000 0.000000E+000 1.300000E+002
      endloop
   endfacet
   facet normal 0.000000E+000 0.000000E+000 1.000000E+000
      outer loop
         vertex 2.897778E+001 -7.764571E+000 1.300000E+002
         vertex 3.000000E+001 -7.347638E-015 1.300000E+002
         vertex 0.000000E+000 0.000000E+000 1.300000E+002
      endloop
   endfacet
   facet normal 0.000000E+000 0.000000E+000 -1.000000E+000
      outer loop
         vertex 2.897778E+001 7.764571E+000 0.000000E+000
         vertex 3.000000E+001 0.000000E+000 0.000000E+000
         vertex 0.000000E+000 0.000000E+000 0.000000E+000
      endloop
   endfacet
   facet normal 0.000000E+000 0.000000E+000 -1.000000E+000
      outer loop
         vertex 2.598076E+001 1.500000E+001 0.000000E+000
         vertex 2.897778E+001 7.764571E+000 0.000000E+000
         vertex 0.000000E+000 0.000000E+000 0.000000E+000
      endloop
   endfacet
   facet normal 0.000000E+000 0.000000E+000 -1.000000E+000
      outer loop
         vertex 2.121320E+001 2.121320E+001 0.000000E+000
         vertex 2.598076E+001 1.500000E+001 0.000000E+000
         vertex 0.000000E+000 0.000000E+000 0.000000E+000
      endloop
   endfacet
   facet normal 0.000000E+000 0.000000E+000 -1.000000E+000
      outer loop
         vertex 1.500000E+001 2.598076E+001 0.000000E+000
         vertex 2.121320E+001 2.121320E+001 0.000000E+000
         vertex 0.000000E+000 0.000000E+000 0.000000E+000
      endloop
   endfacet
   facet normal 0.000000E+000 0.000000E+000 -1.000000E+000
      outer loop
         vertex 7.764571E+000 2.897778E+001 0.000000E+000
         vertex 1.500000E+001 2.598076E+001 0.000000E+000
         vertex 0.000000E+000 0.000000E+000 0.000000E+000
      endloop
   endfacet
   facet normal 0.000000E+000 0.000000E+000 -1.000000E+000
      outer loop
         vertex 1.836910E-015 3.000000E+001 0.000000E+000
         vertex 7.764571E+000 2.897778E+001 0.000000E+000
         vertex 0.000000E+000 0.000000E+000 0.000000E+000
      endloop
   endfacet
   facet normal 0.000000E+000 0.000000E+000 -1.000000E+000
      outer loop
         vertex -7.764571E+000 2.897778E+001 0.000000E+000
         vertex 1.836910E-015 3.000000E+001 0.000000E+000
         vertex 0.000000E+000 0.000000E+000 0.000000E+000
      endloop
   endfacet
   facet normal 0.000000E+000 0.000000E+000 -1.000000E+000
      outer loop
         vertex -1.500000E+001 2.598076E+001 0.000000E+000
         vertex -7.764571E+000 2.897778E+001 0.000000E+000
         vertex 0.000000E+000 0.000000E+000 0.000000E+000
      endloop
   endfacet
   facet normal 0.000000E+000 0.000000E+000 -1.000000E+000
      outer loop
         vertex -2.121320E+001 2.121320E+001 0.000000E+000
         vertex -1.500000E+001 2.598076E+001 0.000000E+000
         vertex 0.000000E+000 0.000000E+000 0.000000E+000
      endloop
   endfacet
   facet normal 0.000000E+000 0.000000E+000 -1.000000E+000
      outer loop
         vertex -2.598076E+001 1.500000E+001 0.000000E+000
         vertex -2.121320E+001 2.121320E+001 0.000000E+000
         vertex 0.000000E+000 0.000000E+000 0.000000E+000
      endloop
   endfacet
   facet normal 0.000000E+000 0.000000E+000 -1.000000E+000
      outer loop
         vertex -2.897778E+001 7.764571E+000 0.000000E+000
         vertex -2.598076E+001 1.500000E+001 0.000000E+000
         vertex 0.000000E+000 0.000000E+000 0.000000E+000
      endloop
   endfacet
   facet normal 0.000000E+000 0.000000E+000 -1.000000E+000
      outer loop
         vertex -3.000000E+001 3.673819E-015 0.000000E+000
         vertex -2.897778E+001 7.764571E+000 0.000000E+000
         vertex 0.000000E+000 0.000000E+000 0.000000E+000
      endloop
   endfacet
   facet normal 0.000000E+000 0.000000E+000 -1.000000E+000
      outer loop
         vertex -2.897778E+001 -7.764571E+000 0.000000E+000
         vertex -3.000000E+001 3.673819E-015 0.000000E+000
         vertex 0.000000E+000 0.000000E+000 0.000000E+000
      endloop
   endfacet
   facet normal 0.000000E+000 0.000000E+000 -1.000000E+000
      outer loop
         vertex -2.598076E+001 -1.500000E+001 0.000000E+000
         vertex -2.897778E+001 -7.764571E+000 0.000000E+000
         vertex 0.000000E+000 0.000000E+000 0.000000E+000
      endloop
   endfacet
   facet normal 0.000000E+000 0.000000E+000 -1.000000E+000
      outer loop
         vertex -2.121320E+001 -2.121320E+001 0.000000E+000
         vertex -2.598076E+001 -1.500000E+001 0.000000E+000
         vertex 0.000000E+000 0.000000E+000 0.000000E+000
      endloop
   endfacet
   facet normal 0.000000E+000 0.000000E+000 -1.000000E+000
      outer loop
         vertex -1.500000E+001 -2.598076E+001 0.000000E+000
         vertex -2.121320E+001 -2.121320E+001 0.000000E+000
         vertex 0.000000E+000 0.000000E+000 0.000000E+000
      endloop
   endfacet
   facet normal 0.000000E+000 0.000000E+000 -1.000000E+000
      outer loop
         vertex -7.764571E+000 -2.897778E+001 0.000000E+000
         vertex -1.500000E+001 -2.598076E+001 0.000000E+000
         vertex 0.000000E+000 0.000000E+000 0.000000E+000
      endloop
   endfacet
   facet normal 0.000000E+000 0.000000E+000 -1.000000E+000
      outer loop
         vertex -5.510729E-015 -3.000000E+001 0.000000E+000
         vertex -7.764571E+000 -2.897778E+001 0.000000E+000
         vertex 0.000000E+000 0.000000E+000 0.000000E+000
      endloop
   endfacet
   facet normal 0.000000E+000 0.000000E+000 -1.000000E+000
      outer loop
         vertex 7.764571E+000 -2.897778E+001 0.000000E+000
         vertex -5.510729E-015 -3.000000E+001 0.000000E+000
         vertex 0.000000E+000 0.000000E+000 0.000000E+000
      endloop
   endfacet
   facet normal 0.000000E+000 0.000000E+000 -1.000000E+000
      outer loop
         vertex 1.500000E+001 -2.598076E+001 0.000000E+000
         vertex 7.764571E+000 -2.897778E+001 0.000000E+000
         vertex 0.000000E+000 0.000000E+000 0.000000E+000
      endloop
   endfacet
   facet normal 0.000000E+000 0.000000E+000 -1.000000E+000
      outer loop
         vertex 2.121320E+001 -2.121320E+001 0.000000E+000
         vertex 1.500000E+001 -2.598076E+001 0.000000E+000
         vertex 0.000000E+000 0.000000E+000 0.000000E+000
      endloop
   endfacet
   facet normal 0.000000E+000 0.000000E+000 -1.000000E+000
      outer loop
         vertex 2.598076E+001 -1.500000E+001 0.000000E+000
         vertex 2.121320E+001 -2.121320E+001 0.000000E+000
         vertex 0.000000E+000 0.000000E+000 0.000000E+000
      endloop
   endfacet
   facet normal 0.000000E+000 0.000000E+000 -1.000000E+000
      outer loop
         vertex 2.897778E+001 -7.764571E+000 0.000000E+000
         vertex 2.598076E+001 -1.500000E+001 0.000000E+000
         vertex 0.000000E+000 0.000000E+000 0.000000E+000
      endloop
   endfacet
   facet normal 0.000000E+000 0.000000E+000 -1.000000E+000
      outer loop
         vertex 3.000000E+001 -7.347638E-015 0.000000E+000
         vertex 2.897778E+001 -7.764571E+000 0.000000E+000
         vertex 0.000000E+000 0.000000E+000 0.000000E+000
      endloop
   endfacet
   facet normal 9.914449E-001 1.305262E-001 0.000000E+000
      outer loop
         vertex 2.897778E+001 7.764571E+000 1.300000E+002
         vertex 3.000000E+001 0.000000E+000 1.300000E+002
         vertex 3.000000E+001 0.000000E+000 0.000000E+000
      endloop
   endfacet
   facet normal 9.914449E-001 1.305262E-001 0.000000E+000
      outer loop
         vertex 3.000000E+001 0.000000E+000 0.000000E+000
         vertex 2.897778E+001 7.764571E+000 0.000000E+000
         vertex 2.897778E+001 7.764571E+000 1.300000E+002
      endloop
   endfacet
   facet normal 9.238795E-001 3.826834E-001 0.000000E+000
      outer loop
         vertex 2.598076E+001 1.500000E+001 1.300000E+002
         vertex 2.897778E+001 7.764571E+000 1.300000E+002
         vertex 2.897778E+001 7.764571E+000 0.000000E+000
      endloop
   endfacet
   facet normal 9.238795E-001 3.826834E-001 0.000000E+000
      outer loop
         vertex 2.897778E+001 7.764571E+000 0.000000E+000
         vertex 2.598076E+001 1.500000E+001 0.000000E+000
         vertex 2.598076E+001 1.500000E+001 1.300000E+002
      endloop
   endfacet
   facet normal 7.933533E-001 6.087614E-001 0.000000E+000
      outer loop
         vertex 2.121320E+001 2.121320E+001 1.300000E+002
         vertex 2.598076E+001 1.500000E+001 1.300000E+002
         vertex 2.598076E+001 1.500000E+001 0.000000E+000
      endloop
   endfacet
   facet normal 7.933533E-001 6.087614E-001 0.000000E+000
      outer loop
         vertex 2.598076E+001 1.500000E+001 0.000000E+000
         vertex 2.121320E+001 2.121320E+001 0.000000E+000
         vertex 2.121320E+001 2.121320E+001 1.300000E+002
      endloop
   endfacet
   facet normal 6.087614E-001 7.933533E-001 0.000000E+000
      outer loop
         vertex 1.500000E+001 2.598076E+001 1.300000E+002
         vertex 2.121320E+001 2.121320E+001 1.300000E+002
         vertex 2.121320E+001 2.121320E+001 0.000000E+000
      endloop
   endfacet
   facet normal 6.087614E-001 7.933533E-001 0.000000E+000
      outer loop
         vertex 2.121320E+001 2.121320E+001 0.000000E+000
         vertex 1.500000E+001 2.598076E+001 0.000000E+000
         vertex 1.500000E+001 2.598076E+001 1.300000E+002
      endloop
   endfacet
   facet normal 3.826834E-001 9.238795E-001 0.000000E+000
      outer loop
         vertex 7.764571E+000 2.897778E+001 1.300000E+002
         vertex 1.500000E+001 2.598076E+001 1.300000E+002
         vertex 1.500000E+001 2.598076E+001 0.000000E+000
      endloop
   endfacet
   facet normal 3.826834E-001 9.238795E-001 0.000000E+000
      outer loop
         vertex 1.500000E+001 2.598076E+001 0.000000E+000
         vertex 7.764571E+000 2.897778E+001 0.000000E+000
         vertex 7.764571E+000 2.897778E+001 1.300000E+002
      endloop
   endfacet
   facet normal 1.305262E-001 9.914449E-001 0.000000E+000
      outer loop
         vertex 1.836910E-015 3.000000E+001 1.300000E+002
         vertex 7.764571E+000 2.897778E+001 1.300000E+002
         vertex 7.764571E+000 2.897778E+001 0.000000E+000
      endloop
   endfacet
   facet normal 1.305262E-001 9.914449E-001 0.000000E+000
      outer loop
         vertex 7.764571E+000 2.897778E+001 0.000000E+000
         vertex 1.836910E-015 3.000000E+001 0.000000E+000
         vertex 1.836910E-015 3.000000E+001 1.300000E+002
      endloop
   endfacet
   facet normal -1.305262E-001 9.914449E-001 0.000000E+000
      outer loop
         vertex -7.764571E+000 2.897778E+001 1.300000E+002
         vertex 1.836910E-015 3.000000E+001 1.300000E+002
         vertex 1.836910E-015 3.000000E+001 0.000000E+000
      endloop
   endfacet
   facet normal -1.305262E-001 9.914449E-001 0.000000E+000
      outer loop
         vertex 1.836910E-015 3.000000E+001 0.000000E+000
         vertex -7.764571E+000 2.897778E+001 0.000000E+000
         vertex -7.764571E+000 2.897778E+001 1.300000E+002
      endloop
   endfacet
   facet normal -3.826834E-001 9.238795E-001 0.000000E+000
      outer loop
         vertex -1.500000E+001 2.598076E+001 1.300000E+002
         vertex -7.764571E+000 2.897778E+001 1.300000E+002
         vertex -7.764571E+000 2.897778E+001 0.000000E+000
      endloop
   endfacet
   facet normal -3.826834E-001 9.238795E-001 0.000000E+000
      outer loop
         vertex -7.764571E+000 2.897778E+001 0.000000E+000
         vertex -1.500000E+001 2.598076E+001 0.000000E+000
         vertex -1.500000E+001 2.598076E+001 1.300000E+002
      endloop
   endfacet
   facet normal -6.087614E-001 7.933533E-001 0.000000E+000
      outer loop
         vertex -2.121320E+001 2.121320E+001 1.300000E+002
         vertex -1.500000E+001 2.598076E+001 1.300000E+002
         vertex -1.500000E+001 2.598076E+001 0.000000E+000
      endloop
   endfacet
   facet normal -6.087614E-001 7.933533E-001 0.000000E+000
      outer loop
         vertex -1.500000E+001 2.598076E+001 0.000000E+000
         vertex -2.121320E+001 2.121320E+001 0.000000E+000
         vertex -2.121320E+001 2.121320E+001 1.300000E+002
      endloop
   endfacet
   facet normal -7.933533E-001 6.087614E-001 0.000000E+000
      outer loop
         vertex -2.598076E+001 1.500000E+001 1.300000E+002
         vertex -2.121320E+001 2.121320E+001 1.300000E+002
         vertex -2.121320E+001 2.121320E+001 0.000000E+000
      endloop
   endfacet
   facet normal -7.933533E-001 6.087614E-001 0.000000E+000
      outer loop
         vertex -2.121320E+001 2.121320E+001 0.000000E+000
         vertex -2.598076E+001 1.500000E+001 0.000000E+000
         vertex -2.598076E+001 1.500000E+001 1.300000E+002
      endloop
   endfacet
   facet normal -9.238795E-001 3.826834E-001 0.000000E+000
      outer loop
         vertex -2.897778E+001 7.764571E+000 1.300000E+002
         vertex -2.598076E+001 1.500000E+001 1.300000E+002
         vertex -2.598076E+001 1.500000E+001 0.000000E+000
      endloop
   endfacet
   facet normal -9.238795E-001 3.826834E-001 0.000000E+000
      outer loop
         vertex -2.598076E+001 1.500000E+001 0.000000E+000
         vertex -2.897778E+001 7.764571E+000 0.000000E+000
         vertex -2.897778E+001 7.764571E+000 1.300000E+002
      endloop
   endfacet
   facet normal -9.914449E-001 1.305262E-001 0.000000E+000
      outer loop
         vertex -3.000000E+001 3.673819E-015 1.300000E+002
         vertex -2.897778E+001 7.764571E+000 1.300000E+002
         vertex -2.897778E+001 7.764571E+000 0.000000E+000
      endloop
   endfacet
   facet normal -9.914449E-001 1.305262E-001 0.000000E+000
      outer loop
         vertex -2.897778E+001 7.764571E+000 0.000000E+000
         vertex -3.000000E+001 3.673819E-015 0.000000E+000
         vertex -3.000000E+001 3.673819E-015 1.300000E+002
      endloop
   endfacet
   facet normal -9.914449E-001 -1.305262E-001 0.000000E+000
      outer loop
         vertex -2.897778E+001 -7.764571E+000 1.300000E+002
         vertex -3.000000E+001 3.673819E-015 1.300000E+002
         vertex -3.000000E+001 3.673819E-015 0.000000E+000
      endloop
   endfacet
   facet normal -9.914449E-001 -1.305262E-001 0.000000E+000
      outer loop
         vertex -3.000000E+001 3.673819E-015 0.000000E+000
         vertex -2.897778E+001 -7.764571E+000 0.000000E+000
         vertex -2.897778E+001 -7.764571E+000 1.300000E+002
      endloop
   endfacet
   facet normal -9.238795E-001 -3.826834E-001 0.000000E+000
      outer loop
         vertex -2.598076E+001 -1.500000E+001 1.300000E+002
         vertex -2.897778E+001 -7.764571E+000 1.300000E+002
         vertex -2.897778E+001 -7.764571E+000 0.000000E+000
      endloop
   endfacet
   facet normal -9.238795E-001 -3.826834E-001 0.000000E+000
      outer loop
         vertex -2.897778E+001 -7.764571E+000 0.000000E+000
         vertex -2.598076E+001 -1.500000E+001 0.000000E+000
         vertex -2.598076E+001 -1.500000E+001 1.300000E+002
      endloop
   endfacet
   facet normal -7.933533E-001 -6.087614E-001 0.000000E+000
      outer loop
         vertex -2.121320E+001 -2.121320E+001 1.300000E+002
         vertex -2.598076E+001 -1.500000E+001 1.300000E+002
         vertex -2.598076E+001 -1.500000E+001 0.000000E+000
      endloop
   endfacet
   facet normal -7.933533E-001 -6.087614E-001 0.000000E+000
      outer loop
         vertex -2.598076E+001 -1.500000E+001 0.000000E+000
         vertex -2.121320E+001 -2.121320E+001 0.000000E+000
         vertex -2.121320E+001 -2.121320E+001 1.300000E+002
      endloop
   endfacet
   facet normal -6.087614E-001 -7.933533E-001 0.000000E+000
      outer loop
         vertex -1.500000E+001 -2.598076E+001 1.300000E+002
         vertex -2.121320E+001 -2.121320E+001 1.300000E+002
         vertex -2.121320E+001 -2.121320E+001 0.000000E+000
      endloop
   endfacet
   facet normal -6.087614E-001 -7.933533E-001 0.000000E+000
      outer loop
         vertex -2.121320E+001 -2.121320E+001 0.000000E+000
         vertex -1.500000E+001 -2.598076E+001 0.000000E+000
         vertex -1.500000E+001 -2.598076E+001 1.300000E+002
      endloop
   endfacet
   facet normal -3.826834E-001 -9.238795E-001 0.000000E+000
      outer loop
         vertex -7.764571E+000 -2.897778E+001 1.300000E+002
         vertex -1.500000E+001 -2.598076E+001 1.300000E+002
         vertex -1.500000E+001 -2.598076E+001 0.000000E+000
      endloop
   endfacet
   facet normal -3.826834E-001 -9.238795E-001 0.000000E+000
      outer loop
         vertex -1.500000E+001 -2.598076E+001 0.000000E+000
         vertex -7.764571E+000 -2.897778E+001 0.000000E+000
         vertex -7.764571E+000 -2.897778E+001 1.300000E+002
      endloop
   endfacet
   facet normal -1.305262E-001 -9.914449E-001 0.000000E+000
      outer loop
         vertex -5.510729E-015 -3.000000E+001 1.300000E+002
         vertex -7.764571E+000 -2.897778E+001 1.300000E+002
         vertex -7.764571E+000 -2.897778E+001 0.000000E+000
      endloop
   endfacet
   facet normal -1.305262E-001 -9.914449E-001 0.000000E+000
      outer loop
         vertex -7.764571E+000 -2.897778E+001 0.000000E+000
         vertex -5.510729E-015 -3.000000E+001 0.000000E+000
         vertex -5.510729E-015 -3.000000E+001 1.300000E+002
      endloop
   endfacet
   facet normal 1.305262E-001 -9.914449E-001 0.000000E+000
      outer loop
         vertex 7.764571E+000 -2.897778E+001 1.300000E+002
         vertex -5.510729E-015 -3.000000E+001 1.300000E+002
         vertex -5.510729E-015 -3.000000E+001 0.000000E+000
      endloop
   endfacet
   facet normal 1.305262E-001 -9.914449E-001 0.000000E+000
      outer loop
         vertex -5.510729E-015 -3.000000E+001 0.000000E+000
         vertex 7.764571E+000 -2.897778E+001 0.000000E+000
         vertex 7.764571E+000 -2.897778E+001 1.300000E+002
      endloop
   endfacet
   facet normal 3.826834E-001 -9.238795E-001 0.000000E+000
      outer loop
         vertex 1.500000E+001 -2.598076E+001 1.300000E+002
         vertex 7.764571E+000 -2.897778E+001 1.300000E+002
         vertex 7.764571E+000 -2.897778E+001 0.000000E+000
      endloop
   endfacet
   facet normal 3.826834E-001 -9.238795E-001 0.000000E+000
      outer loop
         vertex 7.764571E+000 -2.897778E+001 0.000000E+000
         vertex 1.500000E+001 -2.598076E+001 0.000000E+000
         vertex 1.500000E+001 -2.598076E+001 1.300000E+002
      endloop
   endfacet
   facet normal 6.087614E-001 -7.933533E-001 0.000000E+000
      outer loop
         vertex 2.121320E+001 -2.121320E+001 1.300000E+002
         vertex 1.500000E+001 -2.598076E+001 1.300000E+002
         vertex 1.500000E+001 -2.598076E+001 0.000000E+000
      endloop
   endfacet
   facet normal 6.087614E-001 -7.933533E-001 0.000000E+000
      outer loop
         vertex 1.500000E+001 -2.598076E+001 0.000000E+000
         vertex 2.121320E+001 -2.121320E+001 0.000000E+000
         vertex 2.121320E+001 -2.121320E+001 1.300000E+002
      endloop
   endfacet
   facet normal 7.933533E-001 -6.087614E-001 0.000000E+000
      outer loop
         vertex 2.598076E+001 -1.500000E+001 1.300000E+002
         vertex 2.121320E+001 -2.121320E+001 1.300000E+002
         vertex 2.121320E+001 -2.121320E+001 0.000000E+000
      endloop
   endfacet
   facet normal 7.933533E-001 -6.087614E-001 0.000000E+000
      outer loop
         vertex 2.121320E+001 -2.121320E+001 0.000000E+000
         vertex 2.598076E+001 -1.500000E+001 0.000000E+000
         vertex 2.598076E+001 -1.500000E+001 1.300000E+002
      endloop
   endfacet
   facet normal 9.238795E-001 -3.826834E-001 0.000000E+000
      outer loop
         vertex 2.897778E+001 -7.764571E+000 1.300000E+002
         vertex 2.598076E+001 -1.500000E+001 1.300000E+002
         vertex 2.598076E+001 -1.500000E+001 0.000000E+000
      endloop
   endfacet
   facet normal 9.238795E-001 -3.826834E-001 0.000000E+000
      outer loop
         vertex 2.598076E+001 -1.500000E+001 0.000000E+000
         vertex 2.897778E+001 -7.764571E+000 0.000000E+000
         vertex 2.897778E+001 -7.764571E+000 1.300000E+002
      endloop
   endfacet
   facet normal 9.914449E-001 -1.305262E-001 0.000000E+000
      outer loop
         vertex 3.000000E+001 -7.347638E-015 1.300000E+002
         vertex 2.897778E+001 -7.764571E+000 1.300000E+002
         vertex 2.897778E+001 -7.764571E+000 0.000000E+000
      endloop
   endfacet
   facet normal 9.914449E-001 -1.305262E-001 0.000000E+000
      outer loop
         vertex 2.897778E+001 -7.764571E+000 0.000000E+000
         vertex 3.000000E+001 -7.347638E-015 0.000000E+000
         vertex 3.000000E+001 -7.347638E-015 1.300000E+002
      endloop
   endfacet
endsolid
