solid CYLINDER/10/200@ff0000ff
   facet normal 0.000000E+000 0.000000E+000 1.000000E+000
      outer loop
         vertex 1.000000E+001 0.000000E+000 2.000000E+002
         vertex 9.659258E+000 2.588191E+000 2.000000E+002
         vertex 0.000000E+000 0.000000E+000 2.000000E+002
      endloop
   endfacet
   facet normal 0.000000E+000 0.000000E+000 1.000000E+000
      outer loop
         vertex 9.659258E+000 2.588191E+000 2.000000E+002
         vertex 8.660254E+000 5.000000E+000 2.000000E+002
         vertex 0.000000E+000 0.000000E+000 2.000000E+002
      endloop
   endfacet
   facet normal 0.000000E+000 0.000000E+000 1.000000E+000
      outer loop
         vertex 8.660254E+000 5.000000E+000 2.000000E+002
         vertex 7.071068E+000 7.071068E+000 2.000000E+002
         vertex 0.000000E+000 0.000000E+000 2.000000E+002
      endloop
   endfacet
   facet normal 0.000000E+000 0.000000E+000 1.000000E+000
      outer loop
         vertex 7.071068E+000 7.071068E+000 2.000000E+002
         vertex 5.000000E+000 8.660254E+000 2.000000E+002
         vertex 0.000000E+000 0.000000E+000 2.000000E+002
      endloop
   endfacet
   facet normal 0.000000E+000 0.000000E+000 1.000000E+000
      outer loop
         vertex 5.000000E+000 8.660254E+000 2.000000E+002
         vertex 2.588191E+000 9.659258E+000 2.000000E+002
         vertex 0.000000E+000 0.000000E+000 2.000000E+002
      endloop
   endfacet
   facet normal 0.000000E+000 0.000000E+000 1.000000E+000
      outer loop
         vertex 2.588191E+000 9.659258E+000 2.000000E+002
         vertex 6.123032E-016 1.000000E+001 2.000000E+002
         vertex 0.000000E+000 0.000000E+000 2.000000E+002
      endloop
   endfacet
   facet normal 0.000000E+000 0.000000E+000 1.000000E+000
      outer loop
         vertex 6.123032E-016 1.000000E+001 2.000000E+002
         vertex -2.588191E+000 9.659258E+000 2.000000E+002
         vertex 0.000000E+000 0.000000E+000 2.000000E+002
      endloop
   endfacet
   facet normal 0.000000E+000 0.000000E+000 1.000000E+000
      outer loop
         vertex -2.588191E+000 9.659258E+000 2.000000E+002
         vertex -5.000000E+000 8.660254E+000 2.000000E+002
         vertex 0.000000E+000 0.000000E+000 2.000000E+002
      endloop
   endfacet
   facet normal 0.000000E+000 0.000000E+000 1.000000E+000
      outer loop
         vertex -5.000000E+000 8.660254E+000 2.000000E+002
         vertex -7.071068E+000 7.071068E+000 2.000000E+002
         vertex 0.000000E+000 0.000000E+000 2.000000E+002
      endloop
   endfacet
   facet normal 0.000000E+000 0.000000E+000 1.000000E+000
      outer loop
         vertex -7.071068E+000 7.071068E+000 2.000000E+002
         vertex -8.660254E+000 5.000000E+000 2.000000E+002
         vertex 0.000000E+000 0.000000E+000 2.000000E+002
      endloop
   endfacet
   facet normal 0.000000E+000 0.000000E+000 1.000000E+000
      outer loop
         vertex -8.660254E+000 5.000000E+000 2.000000E+002
         vertex -9.659258E+000 2.588191E+000 2.000000E+002
         vertex 0.000000E+000 0.000000E+000 2.000000E+002
      endloop
   endfacet
   facet normal 0.000000E+000 0.000000E+000 1.000000E+000
      outer loop
         vertex -9.659258E+000 2.588191E+000 2.000000E+002
         vertex -1.000000E+001 1.224606E-015 2.000000E+002
         vertex 0.000000E+000 0.000000E+000 2.000000E+002
      endloop
   endfacet
   facet normal 0.000000E+000 0.000000E+000 1.000000E+000
      outer loop
         vertex -1.000000E+001 1.224606E-015 2.000000E+002
         vertex -9.659258E+000 -2.588191E+000 2.000000E+002
         vertex 0.000000E+000 0.000000E+000 2.000000E+002
      endloop
   endfacet
   facet normal 0.000000E+000 0.000000E+000 1.000000E+000
      outer loop
         vertex -9.659258E+000 -2.588191E+000 2.000000E+002
         vertex -8.660254E+000 -5.000000E+000 2.000000E+002
         vertex 0.000000E+000 0.000000E+000 2.000000E+002
      endloop
   endfacet
   facet normal 0.000000E+000 0.000000E+000 1.000000E+000
      outer loop
         vertex -8.660254E+000 -5.000000E+000 2.000000E+002
         vertex -7.071068E+000 -7.071068E+000 2.000000E+002
         vertex 0.000000E+000 0.000000E+000 2.000000E+002
      endloop
   endfacet
   facet normal 0.000000E+000 0.000000E+000 1.000000E+000
      outer loop
         vertex -7.071068E+000 -7.071068E+000 2.000000E+002
         vertex -5.000000E+000 -8.660254E+000 2.000000E+002
         vertex 0.000000E+000 0.000000E+000 2.000000E+002
      endloop
   endfacet
   facet normal 0.000000E+000 0.000000E+000 1.000000E+000
      outer loop
         vertex -5.000000E+000 -8.660254E+000 2.000000E+002
         vertex -2.588191E+000 -9.659258E+000 2.000000E+002
         vertex 0.000000E+000 0.000000E+000 2.000000E+002
      endloop
   endfacet
   facet normal 0.000000E+000 0.000000E+000 1.000000E+000
      outer loop
         vertex -2.588191E+000 -9.659258E+000 2.000000E+002
         vertex -1.836910E-015 -1.000000E+001 2.000000E+002
         vertex 0.000000E+000 0.000000E+000 2.000000E+002
      endloop
   endfacet
   facet normal 0.000000E+000 0.000000E+000 1.000000E+000
      outer loop
         vertex -1.836910E-015 -1.000000E+001 2.000000E+002
         vertex 2.588191E+000 -9.659258E+000 2.000000E+002
         vertex 0.000000E+000 0.000000E+000 2.000000E+002
      endloop
   endfacet
   facet normal 0.000000E+000 0.000000E+000 1.000000E+000
      outer loop
         vertex 2.588191E+000 -9.659258E+000 2.000000E+002
         vertex 5.000000E+000 -8.660254E+000 2.000000E+002
         vertex 0.000000E+000 0.000000E+000 2.000000E+002
      endloop
   endfacet
   facet normal 0.000000E+000 0.000000E+000 1.000000E+000
      outer loop
         vertex 5.000000E+000 -8.660254E+000 2.000000E+002
         vertex 7.071068E+000 -7.071068E+000 2.000000E+002
         vertex 0.000000E+000 0.000000E+000 2.000000E+002
      endloop
   endfacet
   facet normal 0.000000E+000 0.000000E+000 1.000000E+000
      outer loop
         vertex 7.071068E+000 -7.071068E+000 2.000000E+002
         vertex 8.660254E+000 -5.000000E+000 2.000000E+002
         vertex 0.000000E+000 0.000000E+000 2.000000E+002
      endloop
   endfacet
   facet normal 0.000000E+000 0.000000E+000 1.000000E+000
      outer loop
         vertex 8.660254E+000 -5.000000E+000 2.000000E+002
         vertex 9.659258E+000 -2.588191E+000 2.000000E+002
         vertex 0.000000E+000 0.000000E+000 2.000000E+002
      endloop
   endfacet
   facet normal 0.000000E+000 0.000000E+000 1.000000E+000
      outer loop
         vertex 9.659258E+000 -2.588191E+000 2.000000E+002
         vertex 1.000000E+001 -2.449213E-015 2.000000E+002
         vertex 0.000000E+000 0.000000E+000 2.000000E+002
      endloop
   endfacet
   facet normal 0.000000E+000 0.000000E+000 -1.000000E+000
      outer loop
         vertex 9.659258E+000 2.588191E+000 0.000000E+000
         vertex 1.000000E+001 0.000000E+000 0.000000E+000
         vertex 0.000000E+000 0.000000E+000 0.000000E+000
      endloop
   endfacet
   facet normal 0.000000E+000 0.000000E+000 -1.000000E+000
      outer loop
         vertex 8.660254E+000 5.000000E+000 0.000000E+000
         vertex 9.659258E+000 2.588191E+000 0.000000E+000
         vertex 0.000000E+000 0.000000E+000 0.000000E+000
      endloop
   endfacet
   facet normal 0.000000E+000 0.000000E+000 -1.000000E+000
      outer loop
         vertex 7.071068E+000 7.071068E+000 0.000000E+000
         vertex 8.660254E+000 5.000000E+000 0.000000E+000
         vertex 0.000000E+000 0.000000E+000 0.000000E+000
      endloop
   endfacet
   facet normal 0.000000E+000 0.000000E+000 -1.000000E+000
      outer loop
         vertex 5.000000E+000 8.660254E+000 0.000000E+000
         vertex 7.071068E+000 7.071068E+000 0.000000E+000
         vertex 0.000000E+000 0.000000E+000 0.000000E+000
      endloop
   endfacet
   facet normal 0.000000E+000 0.000000E+000 -1.000000E+000
      outer loop
         vertex 2.588191E+000 9.659258E+000 0.000000E+000
         vertex 5.000000E+000 8.660254E+000 0.000000E+000
         vertex 0.000000E+000 0.000000E+000 0.000000E+000
      endloop
   endfacet
   facet normal 0.000000E+000 0.000000E+000 -1.000000E+000
      outer loop
         vertex 6.123032E-016 1.000000E+001 0.000000E+000
         vertex 2.588191E+000 9.659258E+000 0.000000E+000
         vertex 0.000000E+000 0.000000E+000 0.000000E+000
      endloop
   endfacet
   facet normal 0.000000E+000 0.000000E+000 -1.000000E+000
      outer loop
         vertex -2.588191E+000 9.659258E+000 0.000000E+000
         vertex 6.123032E-016 1.000000E+001 0.000000E+000
         vertex 0.000000E+000 0.000000E+000 0.000000E+000
      endloop
   endfacet
   facet normal 0.000000E+000 0.000000E+000 -1.000000E+000
      outer loop
         vertex -5.000000E+000 8.660254E+000 0.000000E+000
         vertex -2.588191E+000 9.659258E+000 0.000000E+000
         vertex 0.000000E+000 0.000000E+000 0.000000E+000
      endloop
   endfacet
   facet normal 0.000000E+000 0.000000E+000 -1.000000E+000
      outer loop
         vertex -7.071068E+000 7.071068E+000 0.000000E+000
         vertex -5.000000E+000 8.660254E+000 0.000000E+000
         vertex 0.000000E+000 0.000000E+000 0.000000E+000
      endloop
   endfacet
   facet normal 0.000000E+000 0.000000E+000 -1.000000E+000
      outer loop
         vertex -8.660254E+000 5.000000E+000 0.000000E+000
         vertex -7.071068E+000 7.071068E+000 0.000000E+000
         vertex 0.000000E+000 0.000000E+000 0.000000E+000
      endloop
   endfacet
   facet normal 0.000000E+000 0.000000E+000 -1.000000E+000
      outer loop
         vertex -9.659258E+000 2.588191E+000 0.000000E+000
         vertex -8.660254E+000 5.000000E+000 0.000000E+000
         vertex 0.000000E+000 0.000000E+000 0.000000E+000
      endloop
   endfacet
   facet normal 0.000000E+000 0.000000E+000 -1.000000E+000
      outer loop
         vertex -1.000000E+001 1.224606E-015 0.000000E+000
         vertex -9.659258E+000 2.588191E+000 0.000000E+000
         vertex 0.000000E+000 0.000000E+000 0.000000E+000
      endloop
   endfacet
   facet normal 0.000000E+000 0.000000E+000 -1.000000E+000
      outer loop
         vertex -9.659258E+000 -2.588191E+000 0.000000E+000
         vertex -1.000000E+001 1.224606E-015 0.000000E+000
         vertex 0.000000E+000 0.000000E+000 0.000000E+000
      endloop
   endfacet
   facet normal 0.000000E+000 0.000000E+000 -1.000000E+000
      outer loop
         vertex -8.660254E+000 -5.000000E+000 0.000000E+000
         vertex -9.659258E+000 -2.588191E+000 0.000000E+000
         vertex 0.000000E+000 0.000000E+000 0.000000E+000
      endloop
   endfacet
   facet normal 0.000000E+000 0.000000E+000 -1.000000E+000
      outer loop
         vertex -7.071068E+000 -7.071068E+000 0.000000E+000
         vertex -8.660254E+000 -5.000000E+000 0.000000E+000
         vertex 0.000000E+000 0.000000E+000 0.000000E+000
      endloop
   endfacet
   facet normal 0.000000E+000 0.000000E+000 -1.000000E+000
      outer loop
         vertex -5.000000E+000 -8.660254E+000 0.000000E+000
         vertex -7.071068E+000 -7.071068E+000 0.000000E+000
         vertex 0.000000E+000 0.000000E+000 0.000000E+000
      endloop
   endfacet
   facet normal 0.000000E+000 0.000000E+000 -1.000000E+000
      outer loop
         vertex -2.588191E+000 -9.659258E+000 0.000000E+000
         vertex -5.000000E+000 -8.660254E+000 0.000000E+000
         vertex 0.000000E+000 0.000000E+000 0.000000E+000
      endloop
   endfacet
   facet normal 0.000000E+000 0.000000E+000 -1.000000E+000
      outer loop
         vertex -1.836910E-015 -1.000000E+001 0.000000E+000
         vertex -2.588191E+000 -9.659258E+000 0.000000E+000
         vertex 0.000000E+000 0.000000E+000 0.000000E+000
      endloop
   endfacet
   facet normal 0.000000E+000 0.000000E+000 -1.000000E+000
      outer loop
         vertex 2.588191E+000 -9.659258E+000 0.000000E+000
         vertex -1.836910E-015 -1.000000E+001 0.000000E+000
         vertex 0.000000E+000 0.000000E+000 0.000000E+000
      endloop
   endfacet
   facet normal 0.000000E+000 0.000000E+000 -1.000000E+000
      outer loop
         vertex 5.000000E+000 -8.660254E+000 0.000000E+000
         vertex 2.588191E+000 -9.659258E+000 0.000000E+000
         vertex 0.000000E+000 0.000000E+000 0.000000E+000
      endloop
   endfacet
   facet normal 0.000000E+000 0.000000E+000 -1.000000E+000
      outer loop
         vertex 7.071068E+000 -7.071068E+000 0.000000E+000
         vertex 5.000000E+000 -8.660254E+000 0.000000E+000
         vertex 0.000000E+000 0.000000E+000 0.000000E+000
      endloop
   endfacet
   facet normal 0.000000E+000 0.000000E+000 -1.000000E+000
      outer loop
         vertex 8.660254E+000 -5.000000E+000 0.000000E+000
         vertex 7.071068E+000 -7.071068E+000 0.000000E+000
         vertex 0.000000E+000 0.000000E+000 0.000000E+000
      endloop
   endfacet
   facet normal 0.000000E+000 0.000000E+000 -1.000000E+000
      outer loop
         vertex 9.659258E+000 -2.588191E+000 0.000000E+000
         vertex 8.660254E+000 -5.000000E+000 0.000000E+000
         vertex 0.000000E+000 0.000000E+000 0.000000E+000
      endloop
   endfacet
   facet normal 0.000000E+000 0.000000E+000 -1.000000E+000
      outer loop
         vertex 1.000000E+001 -2.449213E-015 0.000000E+000
         vertex 9.659258E+000 -2.588191E+000 0.000000E+000
         vertex 0.000000E+000 0.000000E+000 0.000000E+000
      endloop
   endfacet
   facet normal 9.914449E-001 1.305262E-001 0.000000E+000
      outer loop
         vertex 9.659258E+000 2.588191E+000 2.000000E+002
         vertex 1.000000E+001 0.000000E+000 2.000000E+002
         vertex 1.000000E+001 0.000000E+000 0.000000E+000
      endloop
   endfacet
   facet normal 9.914449E-001 1.305262E-001 0.000000E+000
      outer loop
         vertex 1.000000E+001 0.000000E+000 0.000000E+000
         vertex 9.659258E+000 2.588191E+000 0.000000E+000
         vertex 9.659258E+000 2.588191E+000 2.000000E+002
      endloop
   endfacet
   facet normal 9.238795E-001 3.826834E-001 0.000000E+000
      outer loop
         vertex 8.660254E+000 5.000000E+000 2.000000E+002
         vertex 9.659258E+000 2.588191E+000 2.000000E+002
         vertex 9.659258E+000 2.588191E+000 0.000000E+000
      endloop
   endfacet
   facet normal 9.238795E-001 3.826834E-001 0.000000E+000
      outer loop
         vertex 9.659258E+000 2.588191E+000 0.000000E+000
         vertex 8.660254E+000 5.000000E+000 0.000000E+000
         vertex 8.660254E+000 5.000000E+000 2.000000E+002
      endloop
   endfacet
   facet normal 7.933533E-001 6.087614E-001 0.000000E+000
      outer loop
         vertex 7.071068E+000 7.071068E+000 2.000000E+002
         vertex 8.660254E+000 5.000000E+000 2.000000E+002
         vertex 8.660254E+000 5.000000E+000 0.000000E+000
      endloop
   endfacet
   facet normal 7.933533E-001 6.087614E-001 0.000000E+000
      outer loop
         vertex 8.660254E+000 5.000000E+000 0.000000E+000
         vertex 7.071068E+000 7.071068E+000 0.000000E+000
         vertex 7.071068E+000 7.071068E+000 2.000000E+002
      endloop
   endfacet
   facet normal 6.087614E-001 7.933533E-001 0.000000E+000
      outer loop
         vertex 5.000000E+000 8.660254E+000 2.000000E+002
         vertex 7.071068E+000 7.071068E+000 2.000000E+002
         vertex 7.071068E+000 7.071068E+000 0.000000E+000
      endloop
   endfacet
   facet normal 6.087614E-001 7.933533E-001 0.000000E+000
      outer loop
         vertex 7.071068E+000 7.071068E+000 0.000000E+000
         vertex 5.000000E+000 8.660254E+000 0.000000E+000
         vertex 5.000000E+000 8.660254E+000 2.000000E+002
      endloop
   endfacet
   facet normal 3.826834E-001 9.238795E-001 0.000000E+000
      outer loop
         vertex 2.588191E+000 9.659258E+000 2.000000E+002
         vertex 5.000000E+000 8.660254E+000 2.000000E+002
         vertex 5.000000E+000 8.660254E+000 0.000000E+000
      endloop
   endfacet
   facet normal 3.826834E-001 9.238795E-001 0.000000E+000
      outer loop
         vertex 5.000000E+000 8.660254E+000 0.000000E+000
         vertex 2.588191E+000 9.659258E+000 0.000000E+000
         vertex 2.588191E+000 9.659258E+000 2.000000E+002
      endloop
   endfacet
   facet normal 1.305262E-001 9.914449E-001 0.000000E+000
      outer loop
         vertex 6.123032E-016 1.000000E+001 2.000000E+002
         vertex 2.588191E+000 9.659258E+000 2.000000E+002
         vertex 2.588191E+000 9.659258E+000 0.000000E+000
      endloop
   endfacet
   facet normal 1.305262E-001 9.914449E-001 0.000000E+000
      outer loop
         vertex 2.588191E+000 9.659258E+000 0.000000E+000
         vertex 6.123032E-016 1.000000E+001 0.000000E+000
         vertex 6.123032E-016 1.000000E+001 2.000000E+002
      endloop
   endfacet
   facet normal -1.305262E-001 9.914449E-001 0.000000E+000
      outer loop
         vertex -2.588191E+000 9.659258E+000 2.000000E+002
         vertex 6.123032E-016 1.000000E+001 2.000000E+002
         vertex 6.123032E-016 1.000000E+001 0.000000E+000
      endloop
   endfacet
   facet normal -1.305262E-001 9.914449E-001 0.000000E+000
      outer loop
         vertex 6.123032E-016 1.000000E+001 0.000000E+000
         vertex -2.588191E+000 9.659258E+000 0.000000E+000
         vertex -2.588191E+000 9.659258E+000 2.000000E+002
      endloop
   endfacet
   facet normal -3.826834E-001 9.238795E-001 0.000000E+000
      outer loop
         vertex -5.000000E+000 8.660254E+000 2.000000E+002
         vertex -2.588191E+000 9.659258E+000 2.000000E+002
         vertex -2.588191E+000 9.659258E+000 0.000000E+000
      endloop
   endfacet
   facet normal -3.826834E-001 9.238795E-001 0.000000E+000
      outer loop
         vertex -2.588191E+000 9.659258E+000 0.000000E+000
         vertex -5.000000E+000 8.660254E+000 0.000000E+000
         vertex -5.000000E+000 8.660254E+000 2.000000E+002
      endloop
   endfacet
   facet normal -6.087614E-001 7.933533E-001 0.000000E+000
      outer loop
         vertex -7.071068E+000 7.071068E+000 2.000000E+002
         vertex -5.000000E+000 8.660254E+000 2.000000E+002
         vertex -5.000000E+000 8.660254E+000 0.000000E+000
      endloop
   endfacet
   facet normal -6.087614E-001 7.933533E-001 0.000000E+000
      outer loop
         vertex -5.000000E+000 8.660254E+000 0.000000E+000
         vertex -7.071068E+000 7.071068E+000 0.000000E+000
         vertex -7.071068E+000 7.071068E+000 2.000000E+002
      endloop
   endfacet
   facet normal -7.933533E-001 6.087614E-001 0.000000E+000
      outer loop
         vertex -8.660254E+000 5.000000E+000 2.000000E+002
         vertex -7.071068E+000 7.071068E+000 2.000000E+002
         vertex -7.071068E+000 7.071068E+000 0.000000E+000
      endloop
   endfacet
   facet normal -7.933533E-001 6.087614E-001 0.000000E+000
      outer loop
         vertex -7.071068E+000 7.071068E+000 0.000000E+000
         vertex -8.660254E+000 5.000000E+000 0.000000E+000
         vertex -8.660254E+000 5.000000E+000 2.000000E+002
      endloop
   endfacet
   facet normal -9.238795E-001 3.826834E-001 0.000000E+000
      outer loop
         vertex -9.659258E+000 2.588191E+000 2.000000E+002
         vertex -8.660254E+000 5.000000E+000 2.000000E+002
         vertex -8.660254E+000 5.000000E+000 0.000000E+000
      endloop
   endfacet
   facet normal -9.238795E-001 3.826834E-001 0.000000E+000
      outer loop
         vertex -8.660254E+000 5.000000E+000 0.000000E+000
         vertex -9.659258E+000 2.588191E+000 0.000000E+000
         vertex -9.659258E+000 2.588191E+000 2.000000E+002
      endloop
   endfacet
   facet normal -9.914449E-001 1.305262E-001 0.000000E+000
      outer loop
         vertex -1.000000E+001 1.224606E-015 2.000000E+002
         vertex -9.659258E+000 2.588191E+000 2.000000E+002
         vertex -9.659258E+000 2.588191E+000 0.000000E+000
      endloop
   endfacet
   facet normal -9.914449E-001 1.305262E-001 0.000000E+000
      outer loop
         vertex -9.659258E+000 2.588191E+000 0.000000E+000
         vertex -1.000000E+001 1.224606E-015 0.000000E+000
         vertex -1.000000E+001 1.224606E-015 2.000000E+002
      endloop
   endfacet
   facet normal -9.914449E-001 -1.305262E-001 0.000000E+000
      outer loop
         vertex -9.659258E+000 -2.588191E+000 2.000000E+002
         vertex -1.000000E+001 1.224606E-015 2.000000E+002
         vertex -1.000000E+001 1.224606E-015 0.000000E+000
      endloop
   endfacet
   facet normal -9.914449E-001 -1.305262E-001 0.000000E+000
      outer loop
         vertex -1.000000E+001 1.224606E-015 0.000000E+000
         vertex -9.659258E+000 -2.588191E+000 0.000000E+000
         vertex -9.659258E+000 -2.588191E+000 2.000000E+002
      endloop
   endfacet
   facet normal -9.238795E-001 -3.826834E-001 0.000000E+000
      outer loop
         vertex -8.660254E+000 -5.000000E+000 2.000000E+002
         vertex -9.659258E+000 -2.588191E+000 2.000000E+002
         vertex -9.659258E+000 -2.588191E+000 0.000000E+000
      endloop
   endfacet
   facet normal -9.238795E-001 -3.826834E-001 0.000000E+000
      outer loop
         vertex -9.659258E+000 -2.588191E+000 0.000000E+000
         vertex -8.660254E+000 -5.000000E+000 0.000000E+000
         vertex -8.660254E+000 -5.000000E+000 2.000000E+002
      endloop
   endfacet
   facet normal -7.933533E-001 -6.087614E-001 0.000000E+000
      outer loop
         vertex -7.071068E+000 -7.071068E+000 2.000000E+002
         vertex -8.660254E+000 -5.000000E+000 2.000000E+002
         vertex -8.660254E+000 -5.000000E+000 0.000000E+000
      endloop
   endfacet
   facet normal -7.933533E-001 -6.087614E-001 0.000000E+000
      outer loop
         vertex -8.660254E+000 -5.000000E+000 0.000000E+000
         vertex -7.071068E+000 -7.071068E+000 0.000000E+000
         vertex -7.071068E+000 -7.071068E+000 2.000000E+002
      endloop
   endfacet
   facet normal -6.087614E-001 -7.933533E-001 0.000000E+000
      outer loop
         vertex -5.000000E+000 -8.660254E+000 2.000000E+002
         vertex -7.071068E+000 -7.071068E+000 2.000000E+002
         vertex -7.071068E+000 -7.071068E+000 0.000000E+000
      endloop
   endfacet
   facet normal -6.087614E-001 -7.933533E-001 0.000000E+000
      outer loop
         vertex -7.071068E+000 -7.071068E+000 0.000000E+000
         vertex -5.000000E+000 -8.660254E+000 0.000000E+000
         vertex -5.000000E+000 -8.660254E+000 2.000000E+002
      endloop
   endfacet
   facet normal -3.826834E-001 -9.238795E-001 0.000000E+000
      outer loop
         vertex -2.588191E+000 -9.659258E+000 2.000000E+002
         vertex -5.000000E+000 -8.660254E+000 2.000000E+002
         vertex -5.000000E+000 -8.660254E+000 0.000000E+000
      endloop
   endfacet
   facet normal -3.826834E-001 -9.238795E-001 0.000000E+000
      outer loop
         vertex -5.000000E+000 -8.660254E+000 0.000000E+000
         vertex -2.588191E+000 -9.659258E+000 0.000000E+000
         vertex -2.588191E+000 -9.659258E+000 2.000000E+002
      endloop
   endfacet
   facet normal -1.305262E-001 -9.914449E-001 0.000000E+000
      outer loop
         vertex -1.836910E-015 -1.000000E+001 2.000000E+002
         vertex -2.588191E+000 -9.659258E+000 2.000000E+002
         vertex -2.588191E+000 -9.659258E+000 0.000000E+000
      endloop
   endfacet
   facet normal -1.305262E-001 -9.914449E-001 0.000000E+000
      outer loop
         vertex -2.588191E+000 -9.659258E+000 0.000000E+000
         vertex -1.836910E-015 -1.000000E+001 0.000000E+000
         vertex -1.836910E-015 -1.000000E+001 2.000000E+002
      endloop
   endfacet
   facet normal 1.305262E-001 -9.914449E-001 0.000000E+000
      outer loop
         vertex 2.588191E+000 -9.659258E+000 2.000000E+002
         vertex -1.836910E-015 -1.000000E+001 2.000000E+002
         vertex -1.836910E-015 -1.000000E+001 0.000000E+000
      endloop
   endfacet
   facet normal 1.305262E-001 -9.914449E-001 0.000000E+000
      outer loop
         vertex -1.836910E-015 -1.000000E+001 0.000000E+000
         vertex 2.588191E+000 -9.659258E+000 0.000000E+000
         vertex 2.588191E+000 -9.659258E+000 2.000000E+002
      endloop
   endfacet
   facet normal 3.826834E-001 -9.238795E-001 0.000000E+000
      outer loop
         vertex 5.000000E+000 -8.660254E+000 2.000000E+002
         vertex 2.588191E+000 -9.659258E+000 2.000000E+002
         vertex 2.588191E+000 -9.659258E+000 0.000000E+000
      endloop
   endfacet
   facet normal 3.826834E-001 -9.238795E-001 0.000000E+000
      outer loop
         vertex 2.588191E+000 -9.659258E+000 0.000000E+000
         vertex 5.000000E+000 -8.660254E+000 0.000000E+000
         vertex 5.000000E+000 -8.660254E+000 2.000000E+002
      endloop
   endfacet
   facet normal 6.087614E-001 -7.933533E-001 0.000000E+000
      outer loop
         vertex 7.071068E+000 -7.071068E+000 2.000000E+002
         vertex 5.000000E+000 -8.660254E+000 2.000000E+002
         vertex 5.000000E+000 -8.660254E+000 0.000000E+000
      endloop
   endfacet
   facet normal 6.087614E-001 -7.933533E-001 0.000000E+000
      outer loop
         vertex 5.000000E+000 -8.660254E+000 0.000000E+000
         vertex 7.071068E+000 -7.071068E+000 0.000000E+000
         vertex 7.071068E+000 -7.071068E+000 2.000000E+002
      endloop
   endfacet
   facet normal 7.933533E-001 -6.087614E-001 0.000000E+000
      outer loop
         vertex 8.660254E+000 -5.000000E+000 2.000000E+002
         vertex 7.071068E+000 -7.071068E+000 2.000000E+002
         vertex 7.071068E+000 -7.071068E+000 0.000000E+000
      endloop
   endfacet
   facet normal 7.933533E-001 -6.087614E-001 0.000000E+000
      outer loop
         vertex 7.071068E+000 -7.071068E+000 0.000000E+000
         vertex 8.660254E+000 -5.000000E+000 0.000000E+000
         vertex 8.660254E+000 -5.000000E+000 2.000000E+002
      endloop
   endfacet
   facet normal 9.238795E-001 -3.826834E-001 0.000000E+000
      outer loop
         vertex 9.659258E+000 -2.588191E+000 2.000000E+002
         vertex 8.660254E+000 -5.000000E+000 2.000000E+002
         vertex 8.660254E+000 -5.000000E+000 0.000000E+000
      endloop
   endfacet
   facet normal 9.238795E-001 -3.826834E-001 0.000000E+000
      outer loop
         vertex 8.660254E+000 -5.000000E+000 0.000000E+000
         vertex 9.659258E+000 -2.588191E+000 0.000000E+000
         vertex 9.659258E+000 -2.588191E+000 2.000000E+002
      endloop
   endfacet
   facet normal 9.914449E-001 -1.305262E-001 0.000000E+000
      outer loop
         vertex 1.000000E+001 -2.449213E-015 2.000000E+002
         vertex 9.659258E+000 -2.588191E+000 2.000000E+002
         vertex 9.659258E+000 -2.588191E+000 0.000000E+000
      endloop
   endfacet
   facet normal 9.914449E-001 -1.305262E-001 0.000000E+000
      outer loop
         vertex 9.659258E+000 -2.588191E+000 0.000000E+000
         vertex 1.000000E+001 -2.449213E-015 0.000000E+000
         vertex 1.000000E+001 -2.449213E-015 2.000000E+002
      endloop
   endfacet
endsolid
