solid CYLINDER/22/50@ff00ffff
   facet normal 0.000000E+000 0.000000E+000 1.000000E+000
      outer loop
         vertex 2.200000E+001 0.000000E+000 5.000000E+001
         vertex 2.125037E+001 5.694019E+000 5.000000E+001
         vertex 0.000000E+000 0.000000E+000 5.000000E+001
      endloop
   endfacet
   facet normal 0.000000E+000 0.000000E+000 1.000000E+000
      outer loop
         vertex 2.125037E+001 5.694019E+000 5.000000E+001
         vertex 1.905256E+001 1.100000E+001 5.000000E+001
         vertex 0.000000E+000 0.000000E+000 5.000000E+001
      endloop
   endfacet
   facet normal 0.000000E+000 0.000000E+000 1.000000E+000
      outer loop
         vertex 1.905256E+001 1.100000E+001 5.000000E+001
         vertex 1.555635E+001 1.555635E+001 5.000000E+001
         vertex 0.000000E+000 0.000000E+000 5.000000E+001
      endloop
   endfacet
   facet normal 0.000000E+000 0.000000E+000 1.000000E+000
      outer loop
         vertex 1.555635E+001 1.555635E+001 5.000000E+001
         vertex 1.100000E+001 1.905256E+001 5.000000E+001
         vertex 0.000000E+000 0.000000E+000 5.000000E+001
      endloop
   endfacet
   facet normal 0.000000E+000 0.000000E+000 1.000000E+000
      outer loop
         vertex 1.100000E+001 1.905256E+001 5.000000E+001
         vertex 5.694019E+000 2.125037E+001 5.000000E+001
         vertex 0.000000E+000 0.000000E+000 5.000000E+001
      endloop
   endfacet
   facet normal 0.000000E+000 0.000000E+000 1.000000E+000
      outer loop
         vertex 5.694019E+000 2.125037E+001 5.000000E+001
         vertex 1.347067E-015 2.200000E+001 5.000000E+001
         vertex 0.000000E+000 0.000000E+000 5.000000E+001
      endloop
   endfacet
   facet normal 0.000000E+000 0.000000E+000 1.000000E+000
      outer loop
         vertex 1.347067E-015 2.200000E+001 5.000000E+001
         vertex -5.694019E+000 2.125037E+001 5.000000E+001
         vertex 0.000000E+000 0.000000E+000 5.000000E+001
      endloop
   endfacet
   facet normal 0.000000E+000 0.000000E+000 1.000000E+000
      outer loop
         vertex -5.694019E+000 2.125037E+001 5.000000E+001
         vertex -1.100000E+001 1.905256E+001 5.000000E+001
         vertex 0.000000E+000 0.000000E+000 5.000000E+001
      endloop
   endfacet
   facet normal 0.000000E+000 0.000000E+000 1.000000E+000
      outer loop
         vertex -1.100000E+001 1.905256E+001 5.000000E+001
         vertex -1.555635E+001 1.555635E+001 5.000000E+001
         vertex 0.000000E+000 0.000000E+000 5.000000E+001
      endloop
   endfacet
   facet normal 0.000000E+000 0.000000E+000 1.000000E+000
      outer loop
         vertex -1.555635E+001 1.555635E+001 5.000000E+001
         vertex -1.905256E+001 1.100000E+001 5.000000E+001
         vertex 0.000000E+000 0.000000E+000 5.000000E+001
      endloop
   endfacet
   facet normal 0.000000E+000 0.000000E+000 1.000000E+000
      outer loop
         vertex -1.905256E+001 1.100000E+001 5.000000E+001
         vertex -2.125037E+001 5.694019E+000 5.000000E+001
         vertex 0.000000E+000 0.000000E+000 5.000000E+001
      endloop
   endfacet
   facet normal 0.000000E+000 0.000000E+000 1.000000E+000
      outer loop
         vertex -2.125037E+001 5.694019E+000 5.000000E+001
         vertex -2.200000E+001 2.694134E-015 5.000000E+001
         vertex 0.000000E+000 0.000000E+000 5.000000E+001
      endloop
   endfacet
   facet normal 0.000000E+000 0.000000E+000 1.000000E+000
      outer loop
         vertex -2.200000E+001 2.694134E-015 5.000000E+001
         vertex -2.125037E+001 -5.694019E+000 5.000000E+001
         vertex 0.000000E+000 0.000000E+000 5.000000E+001
      endloop
   endfacet
   facet normal 0.000000E+000 0.000000E+000 1.000000E+000
      outer loop
         vertex -2.125037E+001 -5.694019E+000 5.000000E+001
         vertex -1.905256E+001 -1.100000E+001 5.000000E+001
         vertex 0.000000E+000 0.000000E+000 5.000000E+001
      endloop
   endfacet
   facet normal 0.000000E+000 0.000000E+000 1.000000E+000
      outer loop
         vertex -1.905256E+001 -1.100000E+001 5.000000E+001
         vertex -1.555635E+001 -1.555635E+001 5.000000E+001
         vertex 0.000000E+000 0.000000E+000 5.000000E+001
      endloop
   endfacet
   facet normal 0.000000E+000 0.000000E+000 1.000000E+000
      outer loop
         vertex -1.555635E+001 -1.555635E+001 5.000000E+001
         vertex -1.100000E+001 -1.905256E+001 5.000000E+001
         vertex 0.000000E+000 0.000000E+000 5.000000E+001
      endloop
   endfacet
   facet normal 0.000000E+000 0.000000E+000 1.000000E+000
      outer loop
         vertex -1.100000E+001 -1.905256E+001 5.000000E+001
         vertex -5.694019E+000 -2.125037E+001 5.000000E+001
         vertex 0.000000E+000 0.000000E+000 5.000000E+001
      endloop
   endfacet
   facet normal 0.000000E+000 0.000000E+000 1.000000E+000
      outer loop
         vertex -5.694019E+000 -2.125037E+001 5.000000E+001
         vertex -4.041201E-015 -2.200000E+001 5.000000E+001
         vertex 0.000000E+000 0.000000E+000 5.000000E+001
      endloop
   endfacet
   facet normal 0.000000E+000 0.000000E+000 1.000000E+000
      outer loop
         vertex -4.041201E-015 -2.200000E+001 5.000000E+001
         vertex 5.694019E+000 -2.125037E+001 5.000000E+001
         vertex 0.000000E+000 0.000000E+000 5.000000E+001
      endloop
   endfacet
   facet normal 0.000000E+000 0.000000E+000 1.000000E+000
      outer loop
         vertex 5.694019E+000 -2.125037E+001 5.000000E+001
         vertex 1.100000E+001 -1.905256E+001 5.000000E+001
         vertex 0.000000E+000 0.000000E+000 5.000000E+001
      endloop
   endfacet
   facet normal 0.000000E+000 0.000000E+000 1.000000E+000
      outer loop
         vertex 1.100000E+001 -1.905256E+001 5.000000E+001
         vertex 1.555635E+001 -1.555635E+001 5.000000E+001
         vertex 0.000000E+000 0.000000E+000 5.000000E+001
      endloop
   endfacet
   facet normal 0.000000E+000 0.000000E+000 1.000000E+000
      outer loop
         vertex 1.555635E+001 -1.555635E+001 5.000000E+001
         vertex 1.905256E+001 -1.100000E+001 5.000000E+001
         vertex 0.000000E+000 0.000000E+000 5.000000E+001
      endloop
   endfacet
   facet normal 0.000000E+000 0.000000E+000 1.000000E+000
      outer loop
         vertex 1.905256E+001 -1.100000E+001 5.000000E+001
         vertex 2.125037E+001 -5.694019E+000 5.000000E+001
         vertex 0.000000E+000 0.000000E+000 5.000000E+001
      endloop
   endfacet
   facet normal 0.000000E+000 0.000000E+000 1.000000E+000
      outer loop
         vertex 2.125037E+001 -5.694019E+000 5.000000E+001
         vertex 2.200000E+001 -5.388268E-015 5.000000E+001
         vertex 0.000000E+000 0.000000E+000 5.000000E+001
      endloop
   endfacet
   facet normal 0.000000E+000 0.000000E+000 -1.000000E+000
      outer loop
         vertex 2.125037E+001 5.694019E+000 0.000000E+000
         vertex 2.200000E+001 0.000000E+000 0.000000E+000
         vertex 0.000000E+000 0.000000E+000 0.000000E+000
      endloop
   endfacet
   facet normal 0.000000E+000 0.000000E+000 -1.000000E+000
      outer loop
         vertex 1.905256E+001 1.100000E+001 0.000000E+000
         vertex 2.125037E+001 5.694019E+000 0.000000E+000
         vertex 0.000000E+000 0.000000E+000 0.000000E+000
      endloop
   endfacet
   facet normal 0.000000E+000 0.000000E+000 -1.000000E+000
      outer loop
         vertex 1.555635E+001 1.555635E+001 0.000000E+000
         vertex 1.905256E+001 1.100000E+001 0.000000E+000
         vertex 0.000000E+000 0.000000E+000 0.000000E+000
      endloop
   endfacet
   facet normal 0.000000E+000 0.000000E+000 -1.000000E+000
      outer loop
         vertex 1.100000E+001 1.905256E+001 0.000000E+000
         vertex 1.555635E+001 1.555635E+001 0.000000E+000
         vertex 0.000000E+000 0.000000E+000 0.000000E+000
      endloop
   endfacet
   facet normal 0.000000E+000 0.000000E+000 -1.000000E+000
      outer loop
         vertex 5.694019E+000 2.125037E+001 0.000000E+000
         vertex 1.100000E+001 1.905256E+001 0.000000E+000
         vertex 0.000000E+000 0.000000E+000 0.000000E+000
      endloop
   endfacet
   facet normal 0.000000E+000 0.000000E+000 -1.000000E+000
      outer loop
         vertex 1.347067E-015 2.200000E+001 0.000000E+000
         vertex 5.694019E+000 2.125037E+001 0.000000E+000
         vertex 0.000000E+000 0.000000E+000 0.000000E+000
      endloop
   endfacet
   facet normal 0.000000E+000 0.000000E+000 -1.000000E+000
      outer loop
         vertex -5.694019E+000 2.125037E+001 0.000000E+000
         vertex 1.347067E-015 2.200000E+001 0.000000E+000
         vertex 0.000000E+000 0.000000E+000 0.000000E+000
      endloop
   endfacet
   facet normal 0.000000E+000 0.000000E+000 -1.000000E+000
      outer loop
         vertex -1.100000E+001 1.905256E+001 0.000000E+000
         vertex -5.694019E+000 2.125037E+001 0.000000E+000
         vertex 0.000000E+000 0.000000E+000 0.000000E+000
      endloop
   endfacet
   facet normal 0.000000E+000 0.000000E+000 -1.000000E+000
      outer loop
         vertex -1.555635E+001 1.555635E+001 0.000000E+000
         vertex -1.100000E+001 1.905256E+001 0.000000E+000
         vertex 0.000000E+000 0.000000E+000 0.000000E+000
      endloop
   endfacet
   facet normal 0.000000E+000 0.000000E+000 -1.000000E+000
      outer loop
         vertex -1.905256E+001 1.100000E+001 0.000000E+000
         vertex -1.555635E+001 1.555635E+001 0.000000E+000
         vertex 0.000000E+000 0.000000E+000 0.000000E+000
      endloop
   endfacet
   facet normal 0.000000E+000 0.000000E+000 -1.000000E+000
      outer loop
         vertex -2.125037E+001 5.694019E+000 0.000000E+000
         vertex -1.905256E+001 1.100000E+001 0.000000E+000
         vertex 0.000000E+000 0.000000E+000 0.000000E+000
      endloop
   endfacet
   facet normal 0.000000E+000 0.000000E+000 -1.000000E+000
      outer loop
         vertex -2.200000E+001 2.694134E-015 0.000000E+000
         vertex -2.125037E+001 5.694019E+000 0.000000E+000
         vertex 0.000000E+000 0.000000E+000 0.000000E+000
      endloop
   endfacet
   facet normal 0.000000E+000 0.000000E+000 -1.000000E+000
      outer loop
         vertex -2.125037E+001 -5.694019E+000 0.000000E+000
         vertex -2.200000E+001 2.694134E-015 0.000000E+000
         vertex 0.000000E+000 0.000000E+000 0.000000E+000
      endloop
   endfacet
   facet normal 0.000000E+000 0.000000E+000 -1.000000E+000
      outer loop
         vertex -1.905256E+001 -1.100000E+001 0.000000E+000
         vertex -2.125037E+001 -5.694019E+000 0.000000E+000
         vertex 0.000000E+000 0.000000E+000 0.000000E+000
      endloop
   endfacet
   facet normal 0.000000E+000 0.000000E+000 -1.000000E+000
      outer loop
         vertex -1.555635E+001 -1.555635E+001 0.000000E+000
         vertex -1.905256E+001 -1.100000E+001 0.000000E+000
         vertex 0.000000E+000 0.000000E+000 0.000000E+000
      endloop
   endfacet
   facet normal 0.000000E+000 0.000000E+000 -1.000000E+000
      outer loop
         vertex -1.100000E+001 -1.905256E+001 0.000000E+000
         vertex -1.555635E+001 -1.555635E+001 0.000000E+000
         vertex 0.000000E+000 0.000000E+000 0.000000E+000
      endloop
   endfacet
   facet normal 0.000000E+000 0.000000E+000 -1.000000E+000
      outer loop
         vertex -5.694019E+000 -2.125037E+001 0.000000E+000
         vertex -1.100000E+001 -1.905256E+001 0.000000E+000
         vertex 0.000000E+000 0.000000E+000 0.000000E+000
      endloop
   endfacet
   facet normal 0.000000E+000 0.000000E+000 -1.000000E+000
      outer loop
         vertex -4.041201E-015 -2.200000E+001 0.000000E+000
         vertex -5.694019E+000 -2.125037E+001 0.000000E+000
         vertex 0.000000E+000 0.000000E+000 0.000000E+000
      endloop
   endfacet
   facet normal 0.000000E+000 0.000000E+000 -1.000000E+000
      outer loop
         vertex 5.694019E+000 -2.125037E+001 0.000000E+000
         vertex -4.041201E-015 -2.200000E+001 0.000000E+000
         vertex 0.000000E+000 0.000000E+000 0.000000E+000
      endloop
   endfacet
   facet normal 0.000000E+000 0.000000E+000 -1.000000E+000
      outer loop
         vertex 1.100000E+001 -1.905256E+001 0.000000E+000
         vertex 5.694019E+000 -2.125037E+001 0.000000E+000
         vertex 0.000000E+000 0.000000E+000 0.000000E+000
      endloop
   endfacet
   facet normal 0.000000E+000 0.000000E+000 -1.000000E+000
      outer loop
         vertex 1.555635E+001 -1.555635E+001 0.000000E+000
         vertex 1.100000E+001 -1.905256E+001 0.000000E+000
         vertex 0.000000E+000 0.000000E+000 0.000000E+000
      endloop
   endfacet
   facet normal 0.000000E+000 0.000000E+000 -1.000000E+000
      outer loop
         vertex 1.905256E+001 -1.100000E+001 0.000000E+000
         vertex 1.555635E+001 -1.555635E+001 0.000000E+000
         vertex 0.000000E+000 0.000000E+000 0.000000E+000
      endloop
   endfacet
   facet normal 0.000000E+000 0.000000E+000 -1.000000E+000
      outer loop
         vertex 2.125037E+001 -5.694019E+000 0.000000E+000
         vertex 1.905256E+001 -1.100000E+001 0.000000E+000
         vertex 0.000000E+000 0.000000E+000 0.000000E+000
      endloop
   endfacet
   facet normal 0.000000E+000 0.000000E+000 -1.000000E+000
      outer loop
         vertex 2.200000E+001 -5.388268E-015 0.000000E+000
         vertex 2.125037E+001 -5.694019E+000 0.000000E+000
         vertex 0.000000E+000 0.000000E+000 0.000000E+000
      endloop
   endfacet
   facet normal 9.914449E-001 1.305262E-001 0.000000E+000
      outer loop
         vertex 2.125037E+001 5.694019E+000 5.000000E+001
         vertex 2.200000E+001 0.000000E+000 5.000000E+001
         vertex 2.200000E+001 0.000000E+000 0.000000E+000
      endloop
   endfacet
   facet normal 9.914449E-001 1.305262E-001 0.000000E+000
      outer loop
         vertex 2.200000E+001 0.000000E+000 0.000000E+000
         vertex 2.125037E+001 5.694019E+000 0.000000E+000
         vertex 2.125037E+001 5.694019E+000 5.000000E+001
      endloop
   endfacet
   facet normal 9.238795E-001 3.826834E-001 0.000000E+000
      outer loop
         vertex 1.905256E+001 1.100000E+001 5.000000E+001
         vertex 2.125037E+001 5.694019E+000 5.000000E+001
         vertex 2.125037E+001 5.694019E+000 0.000000E+000
      endloop
   endfacet
   facet normal 9.238795E-001 3.826834E-001 0.000000E+000
      outer loop
         vertex 2.125037E+001 5.694019E+000 0.000000E+000
         vertex 1.905256E+001 1.100000E+001 0.000000E+000
         vertex 1.905256E+001 1.100000E+001 5.000000E+001
      endloop
   endfacet
   facet normal 7.933533E-001 6.087614E-001 0.000000E+000
      outer loop
         vertex 1.555635E+001 1.555635E+001 5.000000E+001
         vertex 1.905256E+001 1.100000E+001 5.000000E+001
         vertex 1.905256E+001 1.100000E+001 0.000000E+000
      endloop
   endfacet
   facet normal 7.933533E-001 6.087614E-001 0.000000E+000
      outer loop
         vertex 1.905256E+001 1.100000E+001 0.000000E+000
         vertex 1.555635E+001 1.555635E+001 0.000000E+000
         vertex 1.555635E+001 1.555635E+001 5.000000E+001
      endloop
   endfacet
   facet normal 6.087614E-001 7.933533E-001 0.000000E+000
      outer loop
         vertex 1.100000E+001 1.905256E+001 5.000000E+001
         vertex 1.555635E+001 1.555635E+001 5.000000E+001
         vertex 1.555635E+001 1.555635E+001 0.000000E+000
      endloop
   endfacet
   facet normal 6.087614E-001 7.933533E-001 0.000000E+000
      outer loop
         vertex 1.555635E+001 1.555635E+001 0.000000E+000
         vertex 1.100000E+001 1.905256E+001 0.000000E+000
         vertex 1.100000E+001 1.905256E+001 5.000000E+001
      endloop
   endfacet
   facet normal 3.826834E-001 9.238795E-001 0.000000E+000
      outer loop
         vertex 5.694019E+000 2.125037E+001 5.000000E+001
         vertex 1.100000E+001 1.905256E+001 5.000000E+001
         vertex 1.100000E+001 1.905256E+001 0.000000E+000
      endloop
   endfacet
   facet normal 3.826834E-001 9.238795E-001 0.000000E+000
      outer loop
         vertex 1.100000E+001 1.905256E+001 0.000000E+000
         vertex 5.694019E+000 2.125037E+001 0.000000E+000
         vertex 5.694019E+000 2.125037E+001 5.000000E+001
      endloop
   endfacet
   facet normal 1.305262E-001 9.914449E-001 0.000000E+000
      outer loop
         vertex 1.347067E-015 2.200000E+001 5.000000E+001
         vertex 5.694019E+000 2.125037E+001 5.000000E+001
         vertex 5.694019E+000 2.125037E+001 0.000000E+000
      endloop
   endfacet
   facet normal 1.305262E-001 9.914449E-001 0.000000E+000
      outer loop
         vertex 5.694019E+000 2.125037E+001 0.000000E+000
         vertex 1.347067E-015 2.200000E+001 0.000000E+000
         vertex 1.347067E-015 2.200000E+001 5.000000E+001
      endloop
   endfacet
   facet normal -1.305262E-001 9.914449E-001 0.000000E+000
      outer loop
         vertex -5.694019E+000 2.125037E+001 5.000000E+001
         vertex 1.347067E-015 2.200000E+001 5.000000E+001
         vertex 1.347067E-015 2.200000E+001 0.000000E+000
      endloop
   endfacet
   facet normal -1.305262E-001 9.914449E-001 0.000000E+000
      outer loop
         vertex 1.347067E-015 2.200000E+001 0.000000E+000
         vertex -5.694019E+000 2.125037E+001 0.000000E+000
         vertex -5.694019E+000 2.125037E+001 5.000000E+001
      endloop
   endfacet
   facet normal -3.826834E-001 9.238795E-001 0.000000E+000
      outer loop
         vertex -1.100000E+001 1.905256E+001 5.000000E+001
         vertex -5.694019E+000 2.125037E+001 5.000000E+001
         vertex -5.694019E+000 2.125037E+001 0.000000E+000
      endloop
   endfacet
   facet normal -3.826834E-001 9.238795E-001 0.000000E+000
      outer loop
         vertex -5.694019E+000 2.125037E+001 0.000000E+000
         vertex -1.100000E+001 1.905256E+001 0.000000E+000
         vertex -1.100000E+001 1.905256E+001 5.000000E+001
      endloop
   endfacet
   facet normal -6.087614E-001 7.933533E-001 0.000000E+000
      outer loop
         vertex -1.555635E+001 1.555635E+001 5.000000E+001
         vertex -1.100000E+001 1.905256E+001 5.000000E+001
         vertex -1.100000E+001 1.905256E+001 0.000000E+000
      endloop
   endfacet
   facet normal -6.087614E-001 7.933533E-001 0.000000E+000
      outer loop
         vertex -1.100000E+001 1.905256E+001 0.000000E+000
         vertex -1.555635E+001 1.555635E+001 0.000000E+000
         vertex -1.555635E+001 1.555635E+001 5.000000E+001
      endloop
   endfacet
   facet normal -7.933533E-001 6.087614E-001 0.000000E+000
      outer loop
         vertex -1.905256E+001 1.100000E+001 5.000000E+001
         vertex -1.555635E+001 1.555635E+001 5.000000E+001
         vertex -1.555635E+001 1.555635E+001 0.000000E+000
      endloop
   endfacet
   facet normal -7.933533E-001 6.087614E-001 0.000000E+000
      outer loop
         vertex -1.555635E+001 1.555635E+001 0.000000E+000
         vertex -1.905256E+001 1.100000E+001 0.000000E+000
         vertex -1.905256E+001 1.100000E+001 5.000000E+001
      endloop
   endfacet
   facet normal -9.238795E-001 3.826834E-001 0.000000E+000
      outer loop
         vertex -2.125037E+001 5.694019E+000 5.000000E+001
         vertex -1.905256E+001 1.100000E+001 5.000000E+001
         vertex -1.905256E+001 1.100000E+001 0.000000E+000
      endloop
   endfacet
   facet normal -9.238795E-001 3.826834E-001 0.000000E+000
      outer loop
         vertex -1.905256E+001 1.100000E+001 0.000000E+000
         vertex -2.125037E+001 5.694019E+000 0.000000E+000
         vertex -2.125037E+001 5.694019E+000 5.000000E+001
      endloop
   endfacet
   facet normal -9.914449E-001 1.305262E-001 0.000000E+000
      outer loop
         vertex -2.200000E+001 2.694134E-015 5.000000E+001
         vertex -2.125037E+001 5.694019E+000 5.000000E+001
         vertex -2.125037E+001 5.694019E+000 0.000000E+000
      endloop
   endfacet
   facet normal -9.914449E-001 1.305262E-001 0.000000E+000
      outer loop
         vertex -2.125037E+001 5.694019E+000 0.000000E+000
         vertex -2.200000E+001 2.694134E-015 0.000000E+000
         vertex -2.200000E+001 2.694134E-015 5.000000E+001
      endloop
   endfacet
   facet normal -9.914449E-001 -1.305262E-001 0.000000E+000
      outer loop
         vertex -2.125037E+001 -5.694019E+000 5.000000E+001
         vertex -2.200000E+001 2.694134E-015 5.000000E+001
         vertex -2.200000E+001 2.694134E-015 0.000000E+000
      endloop
   endfacet
   facet normal -9.914449E-001 -1.305262E-001 0.000000E+000
      outer loop
         vertex -2.200000E+001 2.694134E-015 0.000000E+000
         vertex -2.125037E+001 -5.694019E+000 0.000000E+000
         vertex -2.125037E+001 -5.694019E+000 5.000000E+001
      endloop
   endfacet
   facet normal -9.238795E-001 -3.826834E-001 0.000000E+000
      outer loop
         vertex -1.905256E+001 -1.100000E+001 5.000000E+001
         vertex -2.125037E+001 -5.694019E+000 5.000000E+001
         vertex -2.125037E+001 -5.694019E+000 0.000000E+000
      endloop
   endfacet
   facet normal -9.238795E-001 -3.826834E-001 0.000000E+000
      outer loop
         vertex -2.125037E+001 -5.694019E+000 0.000000E+000
         vertex -1.905256E+001 -1.100000E+001 0.000000E+000
         vertex -1.905256E+001 -1.100000E+001 5.000000E+001
      endloop
   endfacet
   facet normal -7.933533E-001 -6.087614E-001 0.000000E+000
      outer loop
         vertex -1.555635E+001 -1.555635E+001 5.000000E+001
         vertex -1.905256E+001 -1.100000E+001 5.000000E+001
         vertex -1.905256E+001 -1.100000E+001 0.000000E+000
      endloop
   endfacet
   facet normal -7.933533E-001 -6.087614E-001 0.000000E+000
      outer loop
         vertex -1.905256E+001 -1.100000E+001 0.000000E+000
         vertex -1.555635E+001 -1.555635E+001 0.000000E+000
         vertex -1.555635E+001 -1.555635E+001 5.000000E+001
      endloop
   endfacet
   facet normal -6.087614E-001 -7.933533E-001 0.000000E+000
      outer loop
         vertex -1.100000E+001 -1.905256E+001 5.000000E+001
         vertex -1.555635E+001 -1.555635E+001 5.000000E+001
         vertex -1.555635E+001 -1.555635E+001 0.000000E+000
      endloop
   endfacet
   facet normal -6.087614E-001 -7.933533E-001 0.000000E+000
      outer loop
         vertex -1.555635E+001 -1.555635E+001 0.000000E+000
         vertex -1.100000E+001 -1.905256E+001 0.000000E+000
         vertex -1.100000E+001 -1.905256E+001 5.000000E+001
      endloop
   endfacet
   facet normal -3.826834E-001 -9.238795E-001 0.000000E+000
      outer loop
         vertex -5.694019E+000 -2.125037E+001 5.000000E+001
         vertex -1.100000E+001 -1.905256E+001 5.000000E+001
         vertex -1.100000E+001 -1.905256E+001 0.000000E+000
      endloop
   endfacet
   facet normal -3.826834E-001 -9.238795E-001 0.000000E+000
      outer loop
         vertex -1.100000E+001 -1.905256E+001 0.000000E+000
         vertex -5.694019E+000 -2.125037E+001 0.000000E+000
         vertex -5.694019E+000 -2.125037E+001 5.000000E+001
      endloop
   endfacet
   facet normal -1.305262E-001 -9.914449E-001 0.000000E+000
      outer loop
         vertex -4.041201E-015 -2.200000E+001 5.000000E+001
         vertex -5.694019E+000 -2.125037E+001 5.000000E+001
         vertex -5.694019E+000 -2.125037E+001 0.000000E+000
      endloop
   endfacet
   facet normal -1.305262E-001 -9.914449E-001 0.000000E+000
      outer loop
         vertex -5.694019E+000 -2.125037E+001 0.000000E+000
         vertex -4.041201E-015 -2.200000E+001 0.000000E+000
         vertex -4.041201E-015 -2.200000E+001 5.000000E+001
      endloop
   endfacet
   facet normal 1.305262E-001 -9.914449E-001 0.000000E+000
      outer loop
         vertex 5.694019E+000 -2.125037E+001 5.000000E+001
         vertex -4.041201E-015 -2.200000E+001 5.000000E+001
         vertex -4.041201E-015 -2.200000E+001 0.000000E+000
      endloop
   endfacet
   facet normal 1.305262E-001 -9.914449E-001 0.000000E+000
      outer loop
         vertex -4.041201E-015 -2.200000E+001 0.000000E+000
         vertex 5.694019E+000 -2.125037E+001 0.000000E+000
         vertex 5.694019E+000 -2.125037E+001 5.000000E+001
      endloop
   endfacet
   facet normal 3.826834E-001 -9.238795E-001 0.000000E+000
      outer loop
         vertex 1.100000E+001 -1.905256E+001 5.000000E+001
         vertex 5.694019E+000 -2.125037E+001 5.000000E+001
         vertex 5.694019E+000 -2.125037E+001 0.000000E+000
      endloop
   endfacet
   facet normal 3.826834E-001 -9.238795E-001 0.000000E+000
      outer loop
         vertex 5.694019E+000 -2.125037E+001 0.000000E+000
         vertex 1.100000E+001 -1.905256E+001 0.000000E+000
         vertex 1.100000E+001 -1.905256E+001 5.000000E+001
      endloop
   endfacet
   facet normal 6.087614E-001 -7.933533E-001 0.000000E+000
      outer loop
         vertex 1.555635E+001 -1.555635E+001 5.000000E+001
         vertex 1.100000E+001 -1.905256E+001 5.000000E+001
         vertex 1.100000E+001 -1.905256E+001 0.000000E+000
      endloop
   endfacet
   facet normal 6.087614E-001 -7.933533E-001 0.000000E+000
      outer loop
         vertex 1.100000E+001 -1.905256E+001 0.000000E+000
         vertex 1.555635E+001 -1.555635E+001 0.000000E+000
         vertex 1.555635E+001 -1.555635E+001 5.000000E+001
      endloop
   endfacet
   facet normal 7.933533E-001 -6.087614E-001 0.000000E+000
      outer loop
         vertex 1.905256E+001 -1.100000E+001 5.000000E+001
         vertex 1.555635E+001 -1.555635E+001 5.000000E+001
         vertex 1.555635E+001 -1.555635E+001 0.000000E+000
      endloop
   endfacet
   facet normal 7.933533E-001 -6.087614E-001 0.000000E+000
      outer loop
         vertex 1.555635E+001 -1.555635E+001 0.000000E+000
         vertex 1.905256E+001 -1.100000E+001 0.000000E+000
         vertex 1.905256E+001 -1.100000E+001 5.000000E+001
      endloop
   endfacet
   facet normal 9.238795E-001 -3.826834E-001 0.000000E+000
      outer loop
         vertex 2.125037E+001 -5.694019E+000 5.000000E+001
         vertex 1.905256E+001 -1.100000E+001 5.000000E+001
         vertex 1.905256E+001 -1.100000E+001 0.000000E+000
      endloop
   endfacet
   facet normal 9.238795E-001 -3.826834E-001 0.000000E+000
      outer loop
         vertex 1.905256E+001 -1.100000E+001 0.000000E+000
         vertex 2.125037E+001 -5.694019E+000 0.000000E+000
         vertex 2.125037E+001 -5.694019E+000 5.000000E+001
      endloop
   endfacet
   facet normal 9.914449E-001 -1.305262E-001 0.000000E+000
      outer loop
         vertex 2.200000E+001 -5.388268E-015 5.000000E+001
         vertex 2.125037E+001 -5.694019E+000 5.000000E+001
         vertex 2.125037E+001 -5.694019E+000 0.000000E+000
      endloop
   endfacet
   facet normal 9.914449E-001 -1.305262E-001 0.000000E+000
      outer loop
         vertex 2.125037E+001 -5.694019E+000 0.000000E+000
         vertex 2.200000E+001 -5.388268E-015 0.000000E+000
         vertex 2.200000E+001 -5.388268E-015 5.000000E+001
      endloop
   endfacet
endsolid
